<?xml version="1.0" encoding="UTF-8" standalone="no"?>
<svg width="178px" height="164px" viewBox="0 0 178 164" version="1.1" xmlns="http://www.w3.org/2000/svg" xmlns:xlink="http://www.w3.org/1999/xlink" xmlns:sketch="http://www.bohemiancoding.com/sketch/ns">
    <!-- Generator: Sketch 3.4.4 (17249) - http://www.bohemiancoding.com/sketch -->
    <title>anchorBorder</title>
    <desc>Created with Sketch.</desc>
    <defs></defs>
    <g id="Home" stroke="none" stroke-width="1" fill="none" fill-rule="evenodd" sketch:type="MSPage">
        <g id="Footer" sketch:type="MSLayerGroup" transform="translate(-788.000000, -3.000000)" stroke="#EF6C16" stroke-width="3">
            <path d="M890.747134,10.5614428 L898.729659,6 L930.659758,74.4216416 L935.221201,73.2812809 C935.221201,73.2812809 931.800119,58.4565919 940.923004,57.3162312 C950.04589,56.1758705 958.028415,66.4391167 958.028415,66.4391167 C958.028415,66.4391167 969.432023,83.5445271 959.168775,90.3866913 C948.905527,97.2288554 940.923004,82.4041664 940.923004,82.4041664 L934.08084,85.8252485 C934.08084,85.8252485 961.449497,150.825808 963.730218,155.387251 C966.01094,159.948694 954.607333,159.948694 954.607333,159.948694 L922.677233,91.527052 C922.677233,91.527052 841.414146,132.572646 834.86946,138.28184 C828.324774,143.991035 867.93992,139.422201 867.93992,139.422201 L870.220641,124.597512 C870.220641,124.597512 879.343527,116.614987 889.606773,120.036069 C910.133266,126.878233 921.536873,123.457151 921.536873,123.457151 C921.536873,123.457151 911.273626,136.001119 905.571823,147.404726 C898.717045,161.114282 879.343527,164.510136 879.343527,164.510136 L871.361002,155.387251 C858.817034,159.948694 832.588739,162.229415 825.746574,162.229415 C806.492904,162.229415 798.074872,155.375257 791.535754,147.404726 C785.922361,140.562562 793.816475,123.457151 793.816475,123.457151 L799.518278,116.614987 L800.658639,113.193905 C800.658639,113.193905 796.097196,104.07102 798.377918,104.07102 C804.079722,104.07102 816.791135,100.525759 817.76405,101.790298 C821.273543,106.351741 816.623689,132.580037 816.623689,132.580037 L919.256151,81.2638057 L890.747134,10.5614428 Z M939.782644,71.0005595 L945.484447,68.7198381 L948.905529,74.4216416 C948.905529,74.4216416 950.393847,76.4293914 945.484447,78.9830843 C943.292136,80.1234456 951.09784,89.2463306 955.747693,85.8252485 C960.397547,82.4041664 959.168775,77.8427237 952.326611,68.7198381 C945.484447,59.5969526 943.292136,64.1583953 940.923004,65.298756 C938.890723,66.2769767 939.782644,71.0005595 939.782644,71.0005595 Z" id="anchorBorder" sketch:type="MSShapeGroup"></path>
        </g>
    </g>
</svg>