<?xml version="1.0" encoding="UTF-8" standalone="no"?>
<svg width="83px" height="84px" viewBox="0 0 83 84" version="1.1" xmlns="http://www.w3.org/2000/svg" xmlns:xlink="http://www.w3.org/1999/xlink" xmlns:sketch="http://www.bohemiancoding.com/sketch/ns">
    <!-- Generator: Sketch 3.4.4 (17249) - http://www.bohemiancoding.com/sketch -->
    <title>Apple icon</title>
    <desc>Created with Sketch.</desc>
    <defs></defs>
    <g id="Home" stroke="none" stroke-width="1" fill="none" fill-rule="evenodd" sketch:type="MSPage">
        <g id="Desktop" sketch:type="MSArtboardGroup" transform="translate(-58.000000, -1112.000000)" stroke="#EF6C16" stroke-width="3">
            <g id="Icons" sketch:type="MSLayerGroup" transform="translate(60.000000, 945.000000)">
                <path d="M40.3489847,179.402651 C42.3249983,177.239824 43.93993,176.876915 43.93993,176.876915 L44.7667794,178.549209 C41.0681092,179.951806 38.6620112,185.798567 37.2593882,190.681051 C37.5309812,190.547631 37.8248749,190.405874 38.1426864,190.255267 C94.6049055,163.498561 84.5711382,247.113264 55.534417,247.949412 C55.534417,247.949412 47.3724779,246.437271 39.7963844,247.113267 C32.2202908,247.789262 32.3733349,249.621708 23.2779922,248.785559 C-22.0744253,225.437436 8.31461229,166.331266 34.6283197,192.546235 C34.6121337,192.625485 34.5960562,192.705132 34.580089,192.785177 C34.2373653,192.793045 33.7877127,192.712838 34.7276445,192.071177 C35.8492822,186.829442 37.449648,183.377168 39.0025947,181.11135 C38.5335535,181.584206 38.151984,181.893797 38.151984,181.893797 C24.3927216,186.074531 7.73886948,170.441267 8.38540504,169.351591 C9.03194061,168.261915 37.3251339,169.351591 40.6325323,177.713062 C40.834565,178.223823 40.6706529,178.821547 40.3489847,179.402651 Z M23.96794,174.359071 L23.0394785,174.591987 L39.2944796,179.535402 L40.2229412,179.302487 L23.96794,174.359071 Z" id="Apple-icon" sketch:type="MSShapeGroup"></path>
            </g>
        </g>
    </g>
</svg>