<?xml version="1.0" encoding="UTF-8" standalone="no"?>
<svg width="84px" height="42px" viewBox="0 0 84 42" version="1.1" xmlns="http://www.w3.org/2000/svg" xmlns:xlink="http://www.w3.org/1999/xlink" xmlns:sketch="http://www.bohemiancoding.com/sketch/ns">
    <!-- Generator: Sketch 3.4.4 (17249) - http://www.bohemiancoding.com/sketch -->
    <title>Book icon</title>
    <desc>Created with Sketch.</desc>
    <defs></defs>
    <g id="Home" stroke="none" stroke-width="1" fill="none" fill-rule="evenodd" sketch:type="MSPage">
        <g id="Desktop" sketch:type="MSArtboardGroup" transform="translate(-58.000000, -1282.000000)" stroke="#EF6C16" stroke-width="2">
            <g id="Icons" sketch:type="MSLayerGroup" transform="translate(60.000000, 945.000000)">
                <path d="M42.7759502,374.541613 C48.5283298,375.649468 67.2422856,376.176475 74.2120032,375.231799 C75.297749,375.217798 76.0925192,375.123423 76.5004865,374.920611 L76.528705,375.084483 L77.098164,374.973982 L77.0461166,374.671731 L72.1255106,346.096592 L72.0734633,345.794341 L71.5040043,345.904841 L71.5560516,346.207092 L76.4582872,374.67555 L63.8416028,374.455991 C53.6350159,373.362353 41.1207447,371.732125 41.1015546,373.900121 C40.7549786,373.838555 40.3840447,373.805203 39.9984342,373.805203 C39.613983,373.805203 39.2441202,373.838355 38.8984402,373.899567 C38.8771212,371.732403 26.3641138,373.362447 16.1583972,374.455991 L3.54171279,374.67555 L8.44394835,346.207092 L8.49599568,345.904841 L7.92653671,345.794341 L7.87448938,346.096592 L2.95388337,374.671731 L2.90183605,374.973982 L3.47129502,375.084483 L3.49951352,374.920611 C3.90748077,375.123423 4.70225105,375.217798 5.78799684,375.231799 C12.7559766,376.176239 31.4623391,375.649731 37.2197447,374.542442 C36.7835483,374.850591 36.5250653,375.233654 36.5250653,375.64876 C36.5250653,376.666929 38.0801455,377.492317 39.9984342,377.492317 C41.9167229,377.492317 43.4718032,376.666929 43.4718032,375.64876 C43.4718032,375.233281 43.2128565,374.849904 42.7759502,374.541613 Z M76.4639391,374.708372 L76.4766577,374.782231 L76.4980888,374.906687 L75.9476169,374.897108 C76.1526034,374.837734 76.3255868,374.774854 76.4639391,374.708372 Z M3.53606092,374.708372 L3.52334235,374.782231 L3.5019112,374.906687 L4.05238312,374.897108 C3.84739659,374.837734 3.67441325,374.774854 3.53606092,374.708372 Z M39.9984342,340.169744 L39.9984342,373.190683 C39.9984342,373.190683 37.1039601,368.27453 33.0516963,369.503569 C13.6730994,375.381033 4.68584992,373.805203 4.68584992,373.805203 L9.89590334,343.693766 C9.89590334,343.693766 14.7888637,344.404458 19.1582205,343.079246 C23.5275773,341.754035 24.4537703,339.003987 30.1572222,338.163093 C35.8606741,337.3222 39.9984342,340.006651 39.9984342,340.006651 L39.9984342,340.169744 C40.0175611,340.15736 44.1493707,337.487236 49.8396462,338.326187 C55.5430982,339.167081 56.4692911,341.917128 60.8386479,343.24234 C65.2080047,344.567551 70.1009651,343.856859 70.1009651,343.856859 L75.3110185,373.968296 C75.3110185,373.968296 66.323769,375.544127 46.9451721,369.666662 C42.8929083,368.437624 39.9984342,373.353777 39.9984342,373.353777 L39.9984342,340.169744 C39.9984342,340.169744 39.9984563,340.16973 39.9985004,340.169701 Z M6.13964069,346.701347 L0.0612450298,376.505525 L0,376.805827 L0.565787419,376.935855 L0.627032448,376.635553 L6.7054281,346.831375 L6.76667313,346.531073 L6.20088572,346.401045 L6.13964069,346.701347 Z M0.633586151,376.877798 C0.633586151,376.877798 34.209486,378.106836 36.5250653,376.877798 L0.633586151,376.877798 Z M73.8603593,346.701347 L79.938755,376.505525 L80,376.805827 L79.4342126,376.935855 L79.3729676,376.635553 L73.2945719,346.831375 L73.2333269,346.531073 L73.7991143,346.401045 L73.8603593,346.701347 Z M79.3664138,376.877798 C79.3664138,376.877798 45.790514,378.106836 43.4749347,376.877798 L79.3664138,376.877798 Z" id="Book-icon" sketch:type="MSShapeGroup"></path>
            </g>
        </g>
    </g>
</svg>