<?xml version="1.0" encoding="UTF-8" standalone="no"?>
<svg width="84px" height="73px" viewBox="0 0 84 73" version="1.1" xmlns="http://www.w3.org/2000/svg" xmlns:xlink="http://www.w3.org/1999/xlink" xmlns:sketch="http://www.bohemiancoding.com/sketch/ns">
    <!-- Generator: Sketch 3.4.4 (17249) - http://www.bohemiancoding.com/sketch -->
    <title>Psi Icon</title>
    <desc>Created with Sketch.</desc>
    <defs></defs>
    <g id="Home" stroke="none" stroke-width="1" fill="none" fill-rule="evenodd" sketch:type="MSPage">
        <g id="Desktop" sketch:type="MSArtboardGroup" transform="translate(-58.000000, -1409.000000)" stroke="#EF6C16" stroke-width="3">
            <g id="Icons" sketch:type="MSLayerGroup" transform="translate(60.000000, 945.000000)">
                <path d="M40,466 L54.5132743,466 L54.5132743,468.831858 C54.5132743,468.831858 47.4336283,467.415929 46.0176991,473.079646 C44.6017699,478.743363 45.3097345,521.221239 45.3097345,526.884956 C45.3097345,532.548673 55.9292035,532.548673 55.9292035,532.548673 L55.9292035,534.672566 L40.3539823,534.672566 L24.0707965,534.672566 L24.0707965,532.548673 C24.0707965,532.548673 34.6902655,532.548673 34.6902655,526.884956 C34.6902655,521.221239 35.3982301,478.743363 33.9823009,473.079646 C32.5663717,467.415929 25.4867257,468.831858 25.4867257,468.831858 L25.4867257,466 L40,466 Z M0,466.707965 L0,468.831858 C0,468.831858 5.66371681,467.415929 6.37168142,471.663717 C7.07964602,475.911505 7.07964602,473.079648 7.07964602,492.902655 C7.07964602,512.725662 34.6902655,512.725664 34.6902655,512.725664 L34.6902655,509.893805 C34.6902655,509.893805 17.699115,512.725662 17.699115,493.610619 C17.699115,474.495577 17.699115,496.442478 17.699115,479.451327 C17.699115,462.460177 0,466.707965 0,466.707965 Z M80,466.471976 L80,468.59587 C80,468.59587 74.3362832,467.179941 73.6283186,471.427729 C72.920354,475.675516 72.920354,472.84366 72.920354,492.666667 C72.920354,512.489674 45.3097345,512.489676 45.3097345,512.489676 L45.3097345,509.657817 C45.3097345,509.657817 62.300885,512.489674 62.300885,493.374631 C62.300885,474.259589 62.300885,496.20649 62.300885,479.215339 C62.300885,462.224189 80,466.471976 80,466.471976 Z" id="Psi-Icon" sketch:type="MSShapeGroup"></path>
            </g>
        </g>
    </g>
</svg>