<?xml version="1.0" encoding="UTF-8" standalone="no"?>
<svg width="61px" height="80px" viewBox="0 0 61 80" version="1.1" xmlns="http://www.w3.org/2000/svg" xmlns:xlink="http://www.w3.org/1999/xlink" xmlns:sketch="http://www.bohemiancoding.com/sketch/ns">
    <!-- Generator: Sketch 3.4.4 (17249) - http://www.bohemiancoding.com/sketch -->
    <title>Running icon</title>
    <desc>Created with Sketch.</desc>
    <defs></defs>
    <g id="Home" stroke="none" stroke-width="1" fill="none" fill-rule="evenodd" sketch:type="MSPage">
        <g id="Desktop" sketch:type="MSArtboardGroup" transform="translate(-72.000000, -945.000000)" fill="#EF6C16">
            <g id="Icons" sketch:type="MSLayerGroup" transform="translate(60.000000, 945.000000)">
                <path d="M48.5710793,7.58773928 C49.3694336,7.67789446 50.1282817,7.94312401 50.8031507,8.39832889 C53.6443034,10.3147106 53.9211637,14.8724311 51.4215353,18.5782825 C48.921907,22.2841339 44.5923485,23.7347857 41.7511957,21.818404 C38.910043,19.9020223 38.6331827,15.3443018 41.1328111,11.6384504 C42.4986007,9.61358402 44.4107155,8.26200696 46.3278463,7.76508902 L45.4677964,6.47501419 C45.4677964,6.47501419 41.1511203,9.71252129 37.9136132,9.17293678 C34.6761061,8.63335226 32.517768,0 32.517768,0 C32.517768,0 34.5098925,5.20518797 38.4531977,5.93542968 C42.3965029,6.66567139 44.3886274,3.2375071 46.5469654,3.2375071 C48.7053035,3.2375071 48.7053035,7.55418323 48.7053035,7.55418323 L48.5710793,7.58773928 Z M36.0074111,39.4093826 C37.1309846,38.6805003 43.7607343,58.3649085 47.9436746,65.1849198 C52.0343636,71.8545214 62.0282137,79.099815 60.8282988,79.8782213 C59.628384,80.6566276 49.5204231,77.8176688 43.5288922,68.0488684 C37.5373613,58.280068 34.8838376,40.1382648 36.0074111,39.4093826 Z M35.5036766,53.6472732 C35.1615905,52.9220648 26.5900032,61.9840067 22.6313305,64.7071805 C18.7599631,67.3702969 11.6481087,69.0314098 12.0135564,69.806144 C12.3790041,70.5808781 18.3121317,71.472052 23.9824278,67.5714512 C29.6527238,63.6708504 35.8457626,54.3724816 35.5036766,53.6472732 Z M14.711479,26.4396413 C14.711479,26.4396413 24.4240003,18.3458736 30.35943,18.3458736 C36.2948596,18.3458736 39.13294,36.5887903 50.3240571,38.3105007 C57.3386558,39.3896697 72.4470222,29.1375639 72.4470222,29.1375639 C72.4470222,29.1375639 61.1157474,40.4688387 49.7844725,40.4688387 C38.4531977,40.4688387 34.5382689,24.1652679 29.8198454,22.1229652 C25.101422,20.0806625 14.711479,26.4396413 14.711479,26.4396413 Z" id="Running-icon" sketch:type="MSShapeGroup"></path>
            </g>
        </g>
    </g>
</svg>